# Blender v2.79 (sub 0) OBJ File: 'plante.blend'
# www.blender.org
mtllib leaf.mtl
o Leaf_Plane.001
v -0.910511 3.387197 -4.574569
v -1.717377 3.630806 -5.205421
v -1.831073 3.571790 -6.036819
v -1.458004 3.260095 -7.398801
v -0.830225 2.882485 -8.687510
v -0.309079 2.628304 -9.516073
v -0.211402 3.313976 -4.396818
v -0.211402 3.241265 -4.389121
v -0.100499 3.241673 -3.568197
v -0.100499 3.149160 -3.589870
v 0.000000 3.098188 -2.770811
v 0.000000 2.875847 -2.862777
v -0.116835 3.062831 -2.762820
v -0.115942 2.963767 -2.814636
v 0.000000 2.659669 -1.785650
v -0.165988 2.560881 -1.807351
v -0.164751 2.435306 -1.908241
v 0.000000 1.617883 -0.736295
v -0.253800 1.472915 -0.795048
v -0.252563 1.300759 -0.927002
v 0.000000 0.469479 0.086911
v -0.333720 -0.092771 0.094929
v -0.332484 -0.414640 0.048093
v 0.910511 3.387197 -4.574569
v 0.000000 2.472458 -10.377783
v -0.000000 3.361699 -4.378397
v 1.717377 3.630806 -5.205421
v 1.831073 3.571790 -6.036819
v 1.458004 3.260095 -7.398801
v 0.830225 2.882485 -8.687510
v 0.309079 2.628304 -9.516073
v 0.000000 2.582541 -9.390106
v 0.000000 2.839946 -8.447790
v 0.000000 3.061142 -7.467104
v 0.000000 3.198164 -6.467893
v 0.000000 3.257071 -5.466351
v 0.000000 3.173283 -4.385264
v 0.000000 2.514126 -9.377121
v 0.000000 2.774825 -8.423122
v 0.000000 2.994270 -7.447680
v 0.000000 3.129988 -6.453707
v 0.000000 3.188439 -5.454573
v 0.211402 3.313976 -4.396818
v 0.211402 3.241265 -4.389121
v -0.000000 3.276554 -3.564039
v 0.000000 3.065879 -3.611330
v 0.100499 3.241673 -3.568197
v 0.100499 3.149160 -3.589870
v 0.116835 3.062831 -2.762820
v 0.115942 2.963767 -2.814636
v 0.000000 2.311631 -2.001121
v 0.165988 2.560881 -1.807351
v 0.164751 2.435306 -1.908241
v 0.000000 1.135965 -1.052954
v 0.253800 1.472915 -0.795048
v 0.252563 1.300759 -0.927002
v 0.000000 -0.843282 0.003587
v 0.333720 -0.092771 0.094929
v 0.332484 -0.414640 0.048093
v -1.717377 3.630806 -5.205421
v -1.831073 3.571790 -6.036819
v -1.458004 3.260095 -7.398801
v -0.830225 2.882485 -8.687510
v -0.309079 2.628304 -9.516073
v 0.000000 2.472458 -10.377783
v 1.717377 3.630806 -5.205421
v 1.831073 3.571790 -6.036819
v 1.458004 3.260095 -7.398801
v 0.830225 2.882485 -8.687510
v 0.309079 2.628304 -9.516073
vt 0.198114 0.256868
vt 0.058682 0.369240
vt 0.037534 0.283361
vt 0.784975 0.256865
vt 0.677920 0.295379
vt 0.653271 0.256856
vt 0.572021 0.359964
vt 0.530931 0.256853
vt 0.407318 0.438777
vt 0.416723 0.256838
vt 0.236495 0.486554
vt 0.307265 0.256880
vt 0.134683 0.472570
vt 0.820123 0.571869
vt 0.980982 0.568524
vt 0.980982 0.595719
vt 0.234923 0.583919
vt 0.366524 0.581193
vt 0.341302 0.621934
vt 0.488700 0.578677
vt 0.447957 0.683912
vt 0.602324 0.576378
vt 0.614227 0.759659
vt 0.711257 0.574121
vt 0.785847 0.804276
vt 0.887261 0.788264
vt 0.960549 0.683244
vt 0.028674 0.284383
vt 0.843847 0.950088
vt 0.838863 0.957751
vt 0.742854 0.922886
vt 0.746162 0.910362
vt 0.034747 0.256865
vt 0.641154 0.898104
vt 0.641470 0.883581
vt 0.849090 0.923697
vt 0.749838 0.897109
vt 0.825112 0.981003
vt 0.737250 0.938011
vt 0.642448 0.916138
vt 0.515610 0.904862
vt 0.512579 0.878388
vt 0.647490 0.869680
vt 0.513862 0.857412
vt 0.523079 0.836355
vt 0.332609 0.852535
vt 0.341647 0.825002
vt 0.328988 0.888603
vt 0.358121 0.792138
vt 0.094962 0.814514
vt 0.130313 0.794225
vt 0.044931 0.862331
vt 0.202972 0.750570
vt 0.037534 0.230370
vt 0.058682 0.144490
vt 0.677919 0.218350
vt 0.572021 0.153765
vt 0.407317 0.074953
vt 0.236495 0.027176
vt 0.134683 0.041160
vt 0.979860 0.541353
vt 0.339643 0.541547
vt 0.443651 0.475222
vt 0.606654 0.392681
vt 0.776288 0.341023
vt 0.878276 0.352838
vt 0.955834 0.454745
vt 0.028674 0.229347
vt 0.857745 0.898220
vt 0.753289 0.883793
vt 0.756693 0.871295
vt 0.857260 0.889092
vt 0.649217 0.854636
vt 0.656210 0.841899
vt 0.759390 0.855381
vt 0.856977 0.862080
vt 0.535031 0.794700
vt 0.550871 0.773269
vt 0.666354 0.826923
vt 0.525639 0.813502
vt 0.360285 0.755446
vt 0.366225 0.727074
vt 0.381122 0.694039
vt 0.161874 0.676435
vt 0.141405 0.641189
vt 0.121985 0.574762
vn 0.0000 0.9996 -0.0265
vn -0.7735 0.1021 0.6255
vn -0.4291 0.8373 0.3388
vn 0.0000 0.9938 -0.1108
vn 0.1998 0.9701 -0.1379
vn 0.0000 0.9851 -0.1719
vn 0.1275 0.9642 -0.2324
vn 0.0000 0.9706 -0.2407
vn 0.1222 0.9720 -0.2009
vn 0.0000 0.9817 -0.1906
vn 0.1641 0.9789 -0.1220
vn 0.0000 0.9941 -0.1080
vn 0.1997 0.9795 -0.0249
vn 0.0000 -0.9997 0.0232
vn 0.0000 -0.9986 -0.0529
vn -0.6350 -0.7266 0.2622
vn 0.0000 -0.9991 0.0416
vn 0.0000 -0.9939 0.1104
vn -0.3645 -0.9300 0.0468
vn 0.0000 -0.9730 0.2308
vn -0.2113 -0.9568 0.1999
vn 0.0000 -0.9822 0.1875
vn -0.1729 -0.9673 0.1858
vn 0.0000 -0.9941 0.1081
vn -0.2015 -0.9719 0.1213
vn -0.2332 -0.9715 0.0413
vn -0.8842 -0.4651 -0.0422
vn -0.7743 0.6184 0.1341
vn 0.0000 0.9999 0.0139
vn -0.9249 -0.3388 -0.1723
vn -0.8035 0.5675 0.1800
vn 0.0000 0.9865 0.1637
vn 0.0000 -0.9868 -0.1619
vn 0.0000 -0.9193 -0.3935
vn 0.0000 -0.7345 -0.6786
vn -0.9242 -0.2600 -0.2796
vn 0.0000 0.9507 0.3100
vn -0.8287 0.4662 0.3097
vn 0.0000 0.8325 0.5540
vn -0.9035 -0.2129 -0.3719
vn -0.8725 0.3247 0.3651
vn 0.0000 -0.5363 -0.8440
vn 0.0000 0.6471 0.7624
vn -0.7346 -0.3097 -0.6037
vn -0.9871 0.1173 0.1089
vn 0.0000 -0.4696 -0.8829
vn 0.0000 0.5491 0.8357
vn 0.4291 0.8373 0.3388
vn 0.7735 0.1021 0.6255
vn -0.1998 0.9701 -0.1379
vn -0.1275 0.9642 -0.2324
vn -0.1222 0.9720 -0.2009
vn -0.1641 0.9789 -0.1220
vn -0.1997 0.9795 -0.0249
vn 0.6350 -0.7266 0.2622
vn 0.3645 -0.9300 0.0468
vn 0.2113 -0.9568 0.1999
vn 0.1729 -0.9673 0.1858
vn 0.2015 -0.9719 0.1213
vn 0.2332 -0.9715 0.0413
vn 0.7743 0.6184 0.1341
vn 0.8842 -0.4651 -0.0422
vn 0.8035 0.5675 0.1800
vn 0.9249 -0.3388 -0.1723
vn 0.9242 -0.2600 -0.2796
vn 0.8287 0.4662 0.3097
vn 0.8725 0.3247 0.3651
vn 0.9035 -0.2129 -0.3719
vn 0.9871 0.1173 0.1089
vn 0.7346 -0.3097 -0.6037
usemtl Leaf
s 1
f 36/1/1 1/2/2 7/3/3
f 65/4/4 64/5/5 32/6/6
f 32/6/6 63/7/7 33/8/8
f 33/8/8 62/9/9 34/10/10
f 34/10/10 61/11/11 35/12/12
f 35/12/12 60/13/13 36/1/1
f 64/5/5 63/7/7 32/6/6
f 63/7/7 62/9/9 33/8/8
f 62/9/9 61/11/11 34/10/10
f 61/11/11 60/13/13 35/12/12
f 60/13/13 1/2/2 36/1/1
f 42/14/14 37/15/15 8/16/16
f 25/17/17 38/18/18 6/19/19
f 38/18/18 39/20/20 5/21/21
f 39/20/20 40/22/22 4/23/23
f 40/22/22 41/24/24 3/25/25
f 41/24/24 42/14/14 2/26/26
f 6/19/19 38/18/18 5/21/21
f 5/21/21 39/20/20 4/23/23
f 4/23/23 40/22/22 3/25/25
f 3/25/25 41/24/24 2/26/26
f 2/26/26 42/14/14 1/27/2
f 7/3/3 1/2/2 8/28/16
f 7/29/3 8/30/16 10/31/27 9/32/28
f 26/33/29 36/1/1 7/3/3
f 1/27/2 42/14/14 8/16/16
f 9/32/28 10/31/27 14/34/30 13/35/31
f 26/36/29 7/29/3 9/32/28 45/37/32
f 8/30/16 37/38/15 46/39/33 10/31/27
f 14/34/30 12/40/34 51/41/35 17/42/36
f 45/37/32 9/32/28 13/35/31 11/43/37
f 10/31/27 46/39/33 12/40/34 14/34/30
f 13/35/31 14/34/30 17/42/36 16/44/38
f 11/43/37 13/35/31 16/44/38 15/45/39
f 16/44/38 17/42/36 20/46/40 19/47/41
f 17/42/36 51/41/35 54/48/42 20/46/40
f 15/45/39 16/44/38 19/47/41 18/49/43
f 19/47/41 20/46/40 23/50/44 22/51/45
f 20/46/40 54/48/42 57/52/46 23/50/44
f 18/49/43 19/47/41 22/51/45 21/53/47
f 36/1/1 43/54/48 24/55/49
f 65/4/4 32/6/6 70/56/50
f 32/6/6 33/8/8 69/57/51
f 33/8/8 34/10/10 68/58/52
f 34/10/10 35/12/12 67/59/53
f 35/12/12 36/1/1 66/60/54
f 70/56/50 32/6/6 69/57/51
f 69/57/51 33/8/8 68/58/52
f 68/58/52 34/10/10 67/59/53
f 67/59/53 35/12/12 66/60/54
f 66/60/54 36/1/1 24/55/49
f 42/14/14 44/61/55 37/15/15
f 25/17/17 31/62/56 38/18/18
f 38/18/18 30/63/57 39/20/20
f 39/20/20 29/64/58 40/22/22
f 40/22/22 28/65/59 41/24/24
f 41/24/24 27/66/60 42/14/14
f 31/62/56 30/63/57 38/18/18
f 30/63/57 29/64/58 39/20/20
f 29/64/58 28/65/59 40/22/22
f 28/65/59 27/66/60 41/24/24
f 27/66/60 24/67/49 42/14/14
f 43/54/48 44/68/55 24/55/49
f 43/69/48 47/70/61 48/71/62 44/72/55
f 26/33/29 43/54/48 36/1/1
f 24/67/49 44/61/55 42/14/14
f 47/70/61 49/73/63 50/74/64 48/71/62
f 26/36/29 45/37/32 47/70/61 43/69/48
f 44/72/55 48/71/62 46/75/33 37/76/15
f 50/74/64 53/77/65 51/78/35 12/79/34
f 45/37/32 11/43/37 49/73/63 47/70/61
f 48/71/62 50/74/64 12/79/34 46/75/33
f 49/73/63 52/80/66 53/77/65 50/74/64
f 11/43/37 15/45/39 52/80/66 49/73/63
f 52/80/66 55/81/67 56/82/68 53/77/65
f 53/77/65 56/82/68 54/83/42 51/78/35
f 15/45/39 18/49/43 55/81/67 52/80/66
f 55/81/67 58/84/69 59/85/70 56/82/68
f 56/82/68 59/85/70 57/86/46 54/83/42
f 18/49/43 21/53/47 58/84/69 55/81/67
