# Blender v2.79 (sub 0) OBJ File: 'plante.blend'
# www.blender.org
mtllib leaf.mtl
o Leaf_Plane.001
v -1.821021 1.774395 4.163944
v -3.434754 2.261611 4.901869
v -3.982112 2.143580 7.797619
v -2.916009 1.520190 11.045364
v -1.660450 0.594145 13.622782
v -0.618157 0.123745 15.279910
v -0.185784 1.589865 5.037367
v -0.185784 1.520616 5.030036
v -0.139941 1.448943 3.395042
v -0.139941 1.320122 3.425220
v 0.001522 1.245548 1.831066
v 0.004797 0.884112 1.911005
v -0.179746 1.194114 1.809515
v -0.178372 1.030179 1.861554
v -0.005692 0.310898 -0.055075
v -0.331975 0.185573 -0.071110
v -0.329503 -0.109509 0.022561
v 1.821021 1.774395 4.163944
v 0.000000 -0.055083 17.003328
v 0.000000 1.622605 5.219244
v 3.434754 2.261611 4.901869
v 3.982112 2.143580 7.797619
v 2.916009 1.520190 11.045364
v 1.660450 0.594145 13.622782
v 0.618157 0.123745 15.279910
v 0.000000 0.165082 15.027975
v 0.000000 0.679892 13.143342
v 0.000000 1.122284 11.181971
v 0.000000 1.396328 9.183548
v 0.000000 1.514143 7.180465
v 0.000000 1.346566 5.142984
v 0.000000 0.028252 15.002005
v 0.000000 0.549650 13.094008
v 0.000000 0.988540 11.143123
v 0.000000 1.259976 9.155177
v 0.000000 1.376877 7.156908
v 0.185784 1.589865 5.037367
v 0.185784 1.520616 5.030036
v 0.000000 1.478262 3.424312
v 0.000000 1.204157 3.455103
v 0.139941 1.448943 3.395042
v 0.139941 1.320122 3.425220
v -0.001522 1.245548 1.831066
v -0.004797 0.884112 1.911005
v 0.179746 1.194114 1.809515
v 0.178372 1.030179 1.861554
v 0.005692 0.310898 -0.055075
v 0.000000 -0.372431 0.111572
v 0.331975 0.185573 -0.071110
v 0.329503 -0.109509 0.022561
v 0.000000 1.514143 7.180465
v 0.000000 1.514143 7.180465
v 0.000000 1.622605 5.219244
v 0.000000 1.622605 5.219244
v -3.434754 2.261611 4.901869
v -3.982112 2.143580 7.797619
v -2.916009 1.520190 11.045364
v -1.660450 0.594145 13.622782
v -0.618157 0.123745 15.279910
v 0.000000 -0.055083 17.003328
v 0.000000 -0.055083 17.003328
v 0.000000 -0.055083 17.003328
v 0.000000 -0.055083 17.003328
v 0.000000 0.165082 15.027975
v 0.000000 0.165082 15.027975
v 0.000000 0.679892 13.143342
v 0.000000 0.679892 13.143342
v 0.000000 1.122284 11.181971
v 0.000000 1.122284 11.181971
v 0.000000 1.396328 9.183548
v 0.000000 1.396328 9.183548
v 0.000000 1.376877 7.156908
v 0.000000 1.376877 7.156908
v 0.000000 1.346566 5.142984
v 0.000000 1.346566 5.142984
v 0.000000 0.028252 15.002005
v 0.000000 0.028252 15.002005
v 0.000000 0.549650 13.094008
v 0.000000 0.549650 13.094008
v 0.000000 0.988540 11.143123
v 0.000000 0.988540 11.143123
v 0.000000 1.259976 9.155177
v 0.000000 1.259976 9.155177
v 0.000000 1.204157 3.455103
v 0.000000 1.204157 3.455103
v 0.000000 1.204157 3.455103
v 0.000000 1.204157 3.455103
v 0.000000 1.478262 3.424312
v 0.000000 1.478262 3.424312
v 0.000000 1.478262 3.424312
v 0.000000 1.478262 3.424312
v 0.001522 1.245548 1.831066
v 0.004797 0.884112 1.911005
v 0.000000 -0.372431 0.111572
v 0.000000 -0.372431 0.111572
v 0.000000 -0.372431 0.111572
v -0.329503 -0.109509 0.022561
v 3.434754 2.261611 4.901869
v 3.982112 2.143580 7.797619
v 2.916009 1.520190 11.045364
v 1.660450 0.594145 13.622782
v 0.618157 0.123745 15.279910
v -0.001522 1.245548 1.831066
v -0.004797 0.884112 1.911005
v 0.329503 -0.109509 0.022561
vn -0.1655 -0.9856 -0.0347
vn 0.2298 0.0115 0.9731
vn 0.1418 -0.9503 0.2769
vn 0.0213 -0.9936 -0.1107
vn -0.0091 -0.9829 -0.1836
vn -0.0124 -0.9792 -0.2022
vn -0.0370 -0.9551 -0.2939
vn -0.0594 -0.9618 -0.2673
vn -0.1129 -0.9756 -0.1885
vn -0.1272 -0.9752 -0.1809
vn -0.1503 -0.9840 -0.0950
vn -0.1497 -0.9829 -0.1069
vn -0.2078 -0.9781 -0.0031
vn 0.2285 0.9727 0.0412
vn 0.6929 0.7204 -0.0295
vn 0.6189 0.7462 0.2451
vn 0.1705 0.9845 0.0410
vn 0.1695 0.9759 0.1372
vn 0.1925 0.9769 0.0925
vn 0.1287 0.9582 0.2556
vn 0.1238 0.9568 0.2632
vn 0.1702 0.9695 0.1761
vn 0.1636 0.9714 0.1721
vn 0.1840 0.9771 0.1068
vn 0.1849 0.9781 0.0952
vn 0.2320 0.9725 0.0215
vn 0.7571 -0.6484 0.0797
vn 0.1924 -0.9811 -0.0199
vn 0.9208 0.3450 -0.1819
vn 0.7511 -0.6333 0.1866
vn 0.1780 -0.9777 0.1117
vn 0.6511 0.7507 -0.1120
vn 0.9094 0.4112 -0.0615
vn 0.6429 0.7009 -0.3089
vn 0.8708 0.3825 -0.3087
vn 0.2294 -0.9333 0.2762
vn -1.0000 -0.0014 -0.0009
vn -0.9999 -0.0078 0.0029
vn -0.9999 -0.0082 0.0036
vn -0.5206 -0.4444 0.7289
vn -0.0991 0.2540 0.9621
vn -0.8237 0.1278 0.5524
vn 0.6274 -0.1906 0.7550
vn 0.1655 -0.9856 -0.0347
vn -0.1418 -0.9503 0.2769
vn -0.2298 0.0115 0.9731
vn -0.0213 -0.9936 -0.1107
vn 0.0124 -0.9792 -0.2022
vn 0.0091 -0.9829 -0.1836
vn 0.0594 -0.9618 -0.2673
vn 0.0370 -0.9551 -0.2939
vn 0.1272 -0.9752 -0.1809
vn 0.1129 -0.9756 -0.1885
vn 0.1497 -0.9829 -0.1069
vn 0.1503 -0.9840 -0.0950
vn 0.2078 -0.9781 -0.0031
vn -0.2285 0.9727 0.0412
vn -0.6189 0.7462 0.2451
vn -0.6929 0.7204 -0.0295
vn -0.1705 0.9845 0.0410
vn -0.1925 0.9769 0.0925
vn -0.1695 0.9759 0.1372
vn -0.1238 0.9568 0.2632
vn -0.1287 0.9582 0.2556
vn -0.1636 0.9714 0.1721
vn -0.1702 0.9695 0.1761
vn -0.1849 0.9781 0.0952
vn -0.1840 0.9771 0.1068
vn -0.2320 0.9725 0.0215
vn 1.0000 0.0000 0.0000
vn -0.7571 -0.6484 0.0797
vn -0.1924 -0.9811 -0.0199
vn -0.9208 0.3450 -0.1819
vn -0.9094 0.4112 -0.0615
vn -0.1780 -0.9777 0.1117
vn -0.6511 0.7507 -0.1120
vn -0.8708 0.3825 -0.3087
vn -0.6429 0.7009 -0.3089
vn -0.2294 -0.9333 0.2762
vn 1.0000 -0.0014 -0.0009
vn 0.9999 -0.0078 0.0029
vn 1.0000 -0.0001 -0.0009
vn 0.5206 -0.4444 0.7289
vn 0.0991 0.2540 0.9621
vn -0.6274 -0.1906 0.7550
vn 0.9999 -0.0082 0.0036
vn -0.7511 -0.6333 0.1866
vn 0.6287 0.6368 -0.4463
vn -1.0000 -0.0001 -0.0009
vn -0.6287 0.6368 -0.4463
vn 0.8237 0.1278 0.5524
usemtl Stalk
s 1
f 30//1 1//2 7//3
f 61//4 59//5 65//6
f 65//6 58//7 67//8
f 67//8 57//9 69//10
f 69//10 56//11 71//12
f 71//12 55//13 30//1
f 59//5 58//7 65//6
f 58//7 57//9 67//8
f 57//9 56//11 69//10
f 56//11 55//13 71//12
f 55//13 1//2 30//1
f 73//14 31//15 8//16
f 63//17 76//18 6//19
f 76//18 79//20 5//21
f 79//20 81//22 4//23
f 81//22 83//24 3//25
f 83//24 73//14 2//26
f 6//19 76//18 5//21
f 5//21 79//20 4//23
f 4//23 81//22 3//25
f 3//25 83//24 2//26
f 2//26 73//14 1//2
f 7//3 1//2 8//16
f 8//16 9//27 7//3
f 54//28 30//1 7//3
f 1//2 73//14 8//16
f 9//27 14//29 13//30
f 7//3 89//31 54//28
f 8//16 85//32 10//33
f 12//34 97//35 14//29
f 9//27 11//36 89//31
f 10//33 12//34 14//29
f 40//37 92//38 93//39
f 15//40 17//41 94//42
f 93//39 15//40 94//42
f 14//29 16//43 13//30
f 13//30 15//40 11//36
f 52//44 37//45 18//46
f 60//47 64//48 102//49
f 64//48 66//50 101//51
f 66//50 68//52 100//53
f 68//52 70//54 99//55
f 70//54 52//44 98//56
f 102//49 64//48 101//51
f 101//51 66//50 100//53
f 100//53 68//52 99//55
f 99//55 70//54 98//56
f 98//56 52//44 18//46
f 72//57 38//58 74//59
f 62//60 25//61 77//62
f 77//62 24//63 78//64
f 78//64 23//65 80//66
f 80//66 22//67 82//68
f 82//68 21//69 72//57
f 25//61 24//63 77//62
f 24//63 23//65 78//64
f 23//65 22//67 80//66
f 22//67 21//69 82//68
f 21//69 18//46 72//57
f 34//70 29//70 28//70
f 35//70 51//70 29//70
f 19//70 32//70 26//70
f 37//45 38//58 18//46
f 32//70 27//70 26//70
f 36//70 53//70 51//70
f 33//70 28//70 27//70
f 41//71 38//58 37//45
f 20//72 37//45 52//44
f 18//46 38//58 72//57
f 41//71 46//73 42//74
f 90//75 37//45 20//72
f 75//70 88//70 53//70
f 38//58 86//76 74//59
f 105//77 44//78 46//73
f 43//79 41//71 90//75
f 42//74 44//78 86//76
f 87//80 103//81 91//82
f 47//83 50//84 49//85
f 104//86 47//83 103//81
f 49//85 46//73 45//87
f 47//83 45//87 43//79
f 8//16 10//33 9//27
f 9//27 10//33 14//29
f 7//3 9//27 89//31
f 8//16 31//15 85//32
f 12//34 95//88 97//35
f 9//27 13//30 11//36
f 10//33 85//32 12//34
f 40//37 39//89 92//38
f 15//40 16//43 17//41
f 93//39 92//38 15//40
f 14//29 97//35 16//43
f 13//30 16//43 15//40
f 34//70 35//70 29//70
f 35//70 36//70 51//70
f 32//70 33//70 27//70
f 36//70 75//70 53//70
f 33//70 34//70 28//70
f 41//71 42//74 38//58
f 41//71 45//87 46//73
f 90//75 41//71 37//45
f 75//70 84//70 88//70
f 38//58 42//74 86//76
f 105//77 48//90 44//78
f 43//79 45//87 41//71
f 42//74 46//73 44//78
f 87//80 104//86 103//81
f 47//83 96//91 50//84
f 104//86 96//91 47//83
f 49//85 105//77 46//73
f 47//83 49//85 45//87
